<svg enable-background="new 0 0 305.8 409.9" viewBox="0 0 305.8 409.9" xmlns="http://www.w3.org/2000/svg" xmlns:xlink="http://www.w3.org/1999/xlink"><filter id="a" filterUnits="userSpaceOnUse" height="81.9" width="99.8" x="193.8" y="100.1"><feFlood flood-color="#fff" result="back"/><feBlend in="SourceGraphic" in2="back" mode="normal"/></filter><mask id="b" height="81.9" maskUnits="userSpaceOnUse" width="99.8" x="193.8" y="100.1"><g filter="url(#a)"><path d="m219 105.5s-6.7 5-5.9 11.4l43-10.3-4-3.9 5.4-4.7z"/></g></mask><g fill="#fdc010"><path d="m100.2 391.5v-27.5c0-1.2.5-1.8 1.6-1.8h8.5c2.6 0 4.7.7 6.4 2.1s2.4 3.4 2.4 5.9c0 1.5-.3 2.8-.9 4s-1.4 2.1-2.5 2.7v.1c1.5.5 2.6 1.4 3.4 2.8s1.2 2.9 1.2 4.6c0 1.2-.2 2.3-.5 3.3s-.8 1.9-1.4 2.6-1.3 1.3-2.1 1.8-1.7.8-2.7 1.1c-1 .2-2 .3-3 .3h-8.6c-1.2-.2-1.8-.8-1.8-2zm5.1-16.7h5c1.1 0 1.9-.4 2.5-1.1.6-.8.9-1.7.9-2.9s-.3-2.1-.9-2.8-1.5-1.1-2.6-1.1h-4.9zm0 13.6h5.5c1.3 0 2.3-.4 3-1.3.7-.8 1.1-1.9 1.1-3.3 0-1.3-.4-2.4-1.1-3.2s-1.7-1.2-3-1.2h-5.5z"/><path d="m125.2 391.5v-27.5c0-1.2.5-1.8 1.6-1.8h1.8c1.1 0 1.6.6 1.6 1.8v24.5h10.6c1.1 0 1.7.6 1.7 1.8v1.2c0 1.2-.6 1.8-1.7 1.8h-14.1c-1 0-1.5-.6-1.5-1.8z"/><path d="m143.4 391.2 8.9-27.6c.3-1 .9-1.5 1.9-1.5h2.6c1 0 1.6.5 1.9 1.5l8.9 27.6c.1.3.1.5.1.8s-.1.5-.2.8c-.2.4-.7.6-1.3.6h-1.8c-1 0-1.6-.5-1.9-1.5l-2-6.5h-10l-2 6.5c-.3 1-.9 1.5-1.9 1.5h-1.9c-.6 0-1.1-.2-1.3-.6-.1-.2-.2-.5-.2-.8 0-.2.1-.5.2-.8zm8.3-10.5h7.4l-2.5-8.4c-.1-.5-.3-1.2-.5-2s-.3-1.5-.5-2l-.2-.8h-.1c-.4 2-.8 3.7-1.1 4.8z"/><path d="m171.4 391.5v-27.5c0-1.2.5-1.8 1.6-1.8h8c4.4 0 7.9 1.4 10.6 4.1s3.9 6.6 3.9 11.5-1.3 8.7-3.9 11.5-6.1 4.2-10.6 4.2h-8c-1.1-.2-1.6-.8-1.6-2zm5.1-3.1h4.3c2.9 0 5.2-.9 6.9-2.8s2.5-4.5 2.5-8c0-3.4-.8-6.1-2.5-7.9-1.7-1.9-4-2.8-6.9-2.8h-4.3z"/><path d="m200.5 391.5v-27.5c0-1.2.5-1.8 1.6-1.8h1.8c1.1 0 1.6.6 1.6 1.8v27.5c0 1.2-.5 1.8-1.6 1.8h-1.8c-1.1 0-1.6-.6-1.6-1.8z"/><path d="m100.2 391.5v-27.5c0-1.2.5-1.8 1.6-1.8h8.5c2.6 0 4.7.7 6.4 2.1s2.4 3.4 2.4 5.9c0 1.5-.3 2.8-.9 4s-1.4 2.1-2.5 2.7v.1c1.5.5 2.6 1.4 3.4 2.8s1.2 2.9 1.2 4.6c0 1.2-.2 2.3-.5 3.3s-.8 1.9-1.4 2.6-1.3 1.3-2.1 1.8-1.7.8-2.7 1.1c-1 .2-2 .3-3 .3h-8.6c-1.2-.2-1.8-.8-1.8-2zm5.1-16.7h5c1.1 0 1.9-.4 2.5-1.1.6-.8.9-1.7.9-2.9s-.3-2.1-.9-2.8-1.5-1.1-2.6-1.1h-4.9zm0 13.6h5.5c1.3 0 2.3-.4 3-1.3.7-.8 1.1-1.9 1.1-3.3 0-1.3-.4-2.4-1.1-3.2s-1.7-1.2-3-1.2h-5.5z"/><path d="m125.2 391.5v-27.5c0-1.2.5-1.8 1.6-1.8h1.8c1.1 0 1.6.6 1.6 1.8v24.5h10.6c1.1 0 1.7.6 1.7 1.8v1.2c0 1.2-.6 1.8-1.7 1.8h-14.1c-1 0-1.5-.6-1.5-1.8z"/><path d="m143.4 391.2 8.9-27.6c.3-1 .9-1.5 1.9-1.5h2.6c1 0 1.6.5 1.9 1.5l8.9 27.6c.1.3.1.5.1.8s-.1.5-.2.8c-.2.4-.7.6-1.3.6h-1.8c-1 0-1.6-.5-1.9-1.5l-2-6.5h-10l-2 6.5c-.3 1-.9 1.5-1.9 1.5h-1.9c-.6 0-1.1-.2-1.3-.6-.1-.2-.2-.5-.2-.8 0-.2.1-.5.2-.8zm8.3-10.5h7.4l-2.5-8.4c-.1-.5-.3-1.2-.5-2s-.3-1.5-.5-2l-.2-.8h-.1c-.4 2-.8 3.7-1.1 4.8z"/><path d="m171.4 391.5v-27.5c0-1.2.5-1.8 1.6-1.8h8c4.4 0 7.9 1.4 10.6 4.1s3.9 6.6 3.9 11.5-1.3 8.7-3.9 11.5-6.1 4.2-10.6 4.2h-8c-1.1-.2-1.6-.8-1.6-2zm5.1-3.1h4.3c2.9 0 5.2-.9 6.9-2.8s2.5-4.5 2.5-8c0-3.4-.8-6.1-2.5-7.9-1.7-1.9-4-2.8-6.9-2.8h-4.3z"/><path d="m200.5 391.5v-27.5c0-1.2.5-1.8 1.6-1.8h1.8c1.1 0 1.6.6 1.6 1.8v27.5c0 1.2-.5 1.8-1.6 1.8h-1.8c-1.1 0-1.6-.6-1.6-1.8z"/><path d="m100.2 391.5v-27.5c0-1.2.5-1.8 1.6-1.8h8.5c2.6 0 4.7.7 6.4 2.1s2.4 3.4 2.4 5.9c0 1.5-.3 2.8-.9 4s-1.4 2.1-2.5 2.7v.1c1.5.5 2.6 1.4 3.4 2.8s1.2 2.9 1.2 4.6c0 1.2-.2 2.3-.5 3.3s-.8 1.9-1.4 2.6-1.3 1.3-2.1 1.8-1.7.8-2.7 1.1c-1 .2-2 .3-3 .3h-8.6c-1.2-.2-1.8-.8-1.8-2zm5.1-16.7h5c1.1 0 1.9-.4 2.5-1.1.6-.8.9-1.7.9-2.9s-.3-2.1-.9-2.8-1.5-1.1-2.6-1.1h-4.9zm0 13.6h5.5c1.3 0 2.3-.4 3-1.3.7-.8 1.1-1.9 1.1-3.3 0-1.3-.4-2.4-1.1-3.2s-1.7-1.2-3-1.2h-5.5z"/><path d="m125.2 391.5v-27.5c0-1.2.5-1.8 1.6-1.8h1.8c1.1 0 1.6.6 1.6 1.8v24.5h10.6c1.1 0 1.7.6 1.7 1.8v1.2c0 1.2-.6 1.8-1.7 1.8h-14.1c-1 0-1.5-.6-1.5-1.8z"/><path d="m143.4 391.2 8.9-27.6c.3-1 .9-1.5 1.9-1.5h2.6c1 0 1.6.5 1.9 1.5l8.9 27.6c.1.3.1.5.1.8s-.1.5-.2.8c-.2.4-.7.6-1.3.6h-1.8c-1 0-1.6-.5-1.9-1.5l-2-6.5h-10l-2 6.5c-.3 1-.9 1.5-1.9 1.5h-1.9c-.6 0-1.1-.2-1.3-.6-.1-.2-.2-.5-.2-.8 0-.2.1-.5.2-.8zm8.3-10.5h7.4l-2.5-8.4c-.1-.5-.3-1.2-.5-2s-.3-1.5-.5-2l-.2-.8h-.1c-.4 2-.8 3.7-1.1 4.8z"/><path d="m171.4 391.5v-27.5c0-1.2.5-1.8 1.6-1.8h8c4.4 0 7.9 1.4 10.6 4.1s3.9 6.6 3.9 11.5-1.3 8.7-3.9 11.5-6.1 4.2-10.6 4.2h-8c-1.1-.2-1.6-.8-1.6-2zm5.1-3.1h4.3c2.9 0 5.2-.9 6.9-2.8s2.5-4.5 2.5-8c0-3.4-.8-6.1-2.5-7.9-1.7-1.9-4-2.8-6.9-2.8h-4.3z"/><path d="m200.5 391.5v-27.5c0-1.2.5-1.8 1.6-1.8h1.8c1.1 0 1.6.6 1.6 1.8v27.5c0 1.2-.5 1.8-1.6 1.8h-1.8c-1.1 0-1.6-.6-1.6-1.8z"/></g><path d="m78.6 350 8.9-27.6c.3-1 .9-1.5 1.9-1.5h2.6c1 0 1.6.5 1.9 1.5l8.9 27.6c.1.3.1.5.1.8s-.1.5-.2.8c-.2.4-.7.6-1.3.6h-1.8c-1 0-1.6-.5-1.9-1.5l-2-6.5h-10l-2 6.5c-.3 1-.9 1.5-1.9 1.5h-1.8c-.6 0-1.1-.2-1.3-.6-.1-.2-.2-.5-.2-.8s0-.5.1-.8zm8.3-10.6h7.4l-2.5-8.4c-.1-.5-.3-1.2-.5-2s-.3-1.5-.5-2l-.2-.8h-.1c-.4 2-.8 3.7-1.1 4.8z" fill="#8bc649"/><path d="m105.7 350.2 2-27.6c.1-1.2.7-1.8 1.7-1.8h2.5c1 0 1.6.5 1.9 1.5l5.1 13.9c.2.5.4 1.2.6 2s.4 1.4.6 1.9l.2.7h.1c.5-1.8 1-3.3 1.4-4.6l5.1-13.9c.3-1 1-1.5 1.9-1.5h2.5c1.1 0 1.6.6 1.7 1.8l2 27.6v.2c0 .5-.1.9-.4 1.2s-.7.5-1.2.5h-1.8c-1.1 0-1.6-.6-1.7-1.8l-1.1-15.7c0-.6-.1-1.3-.1-2.1 0-.3 0-.5 0-.8 0-.5 0-.9 0-1.2v-.8h-.1c-.6 2-1.1 3.6-1.5 4.8l-4.1 10.7c-.3 1-.9 1.4-1.9 1.4h-1.7c-1 0-1.6-.5-1.9-1.4l-4.1-10.7c-.2-.5-.4-1.2-.7-2s-.5-1.5-.6-2l-.2-.8h-.1v2.1c0 1 0 1.9-.1 2.8l-1.1 15.7c-.1 1.2-.7 1.8-1.7 1.8h-1.8c-.5 0-.9-.2-1.2-.5-.2-.3-.4-.7-.4-1.2.2-.1.2-.1.2-.2z" fill="#8bc649"/><path d="m139 336.2c0-3 .6-5.6 1.9-8.1s3-4.3 5.2-5.8c2.2-1.4 4.8-2.1 7.6-2.1s5.3.7 7.6 2.1c2.2 1.4 4 3.3 5.2 5.8s1.9 5.1 1.9 8.1-.6 5.8-1.9 8.3-3 4.5-5.2 5.9-4.8 2.2-7.6 2.2-5.3-.7-7.6-2.2c-2.2-1.4-4-3.4-5.2-5.9s-1.9-5.2-1.9-8.3zm5.3 0c0 3.2.9 5.9 2.7 8s4 3.2 6.7 3.2 4.9-1.1 6.7-3.2 2.6-4.8 2.6-8c0-3.1-.9-5.6-2.6-7.7-1.8-2-4-3.1-6.7-3.1s-4.9 1-6.7 3.1-2.7 4.7-2.7 7.7z" fill="#8bc649"/><path d="m173 340.9v-18.2c0-1.2.5-1.8 1.6-1.8h1.8c1.1 0 1.7.6 1.7 1.8v18.1c0 2.1.6 3.7 1.7 4.9s2.7 1.7 4.6 1.7 3.5-.6 4.6-1.7c1.1-1.2 1.7-2.8 1.7-4.9v-18.1c0-1.2.5-1.8 1.6-1.8h1.8c1.1 0 1.6.6 1.6 1.8v18.2c0 3.5-1 6.3-3.1 8.5s-4.9 3.2-8.3 3.2-6.2-1.1-8.3-3.2c-2-2.2-3-5-3-8.5z" fill="#8bc649"/><path d="m202 350.2v-27.5c0-1.2.5-1.8 1.6-1.8h8c4.4 0 7.9 1.4 10.6 4.1s3.9 6.6 3.9 11.5-1.3 8.7-3.9 11.5-6.1 4.2-10.6 4.2h-8c-1-.1-1.6-.7-1.6-2zm5.1-3h4.3c2.9 0 5.2-.9 6.9-2.8s2.5-4.5 2.5-8c0-3.4-.8-6.1-2.5-7.9-1.7-1.9-4-2.8-6.9-2.8h-4.3z" fill="#8bc649"/><path d="m78.6 350 8.9-27.6c.3-1 .9-1.5 1.9-1.5h2.6c1 0 1.6.5 1.9 1.5l8.9 27.6c.1.3.1.5.1.8s-.1.5-.2.8c-.2.4-.7.6-1.3.6h-1.8c-1 0-1.6-.5-1.9-1.5l-2-6.5h-10l-2 6.5c-.3 1-.9 1.5-1.9 1.5h-1.8c-.6 0-1.1-.2-1.3-.6-.1-.2-.2-.5-.2-.8s0-.5.1-.8zm8.3-10.6h7.4l-2.5-8.4c-.1-.5-.3-1.2-.5-2s-.3-1.5-.5-2l-.2-.8h-.1c-.4 2-.8 3.7-1.1 4.8z" fill="#8bc649"/><path d="m105.7 350.2 2-27.6c.1-1.2.7-1.8 1.7-1.8h2.5c1 0 1.6.5 1.9 1.5l5.1 13.9c.2.5.4 1.2.6 2s.4 1.4.6 1.9l.2.7h.1c.5-1.8 1-3.3 1.4-4.6l5.1-13.9c.3-1 1-1.5 1.9-1.5h2.5c1.1 0 1.6.6 1.7 1.8l2 27.6v.2c0 .5-.1.9-.4 1.2s-.7.5-1.2.5h-1.8c-1.1 0-1.6-.6-1.7-1.8l-1.1-15.7c0-.6-.1-1.3-.1-2.1 0-.3 0-.5 0-.8 0-.5 0-.9 0-1.2v-.8h-.1c-.6 2-1.1 3.6-1.5 4.8l-4.1 10.7c-.3 1-.9 1.4-1.9 1.4h-1.7c-1 0-1.6-.5-1.9-1.4l-4.1-10.7c-.2-.5-.4-1.2-.7-2s-.5-1.5-.6-2l-.2-.8h-.1v2.1c0 1 0 1.9-.1 2.8l-1.1 15.7c-.1 1.2-.7 1.8-1.7 1.8h-1.8c-.5 0-.9-.2-1.2-.5-.2-.3-.4-.7-.4-1.2.2-.1.2-.1.2-.2z" fill="#8bc649"/><path d="m139 336.2c0-3 .6-5.6 1.9-8.1s3-4.3 5.2-5.8c2.2-1.4 4.8-2.1 7.6-2.1s5.3.7 7.6 2.1c2.2 1.4 4 3.3 5.2 5.8s1.9 5.1 1.9 8.1-.6 5.8-1.9 8.3-3 4.5-5.2 5.9-4.8 2.2-7.6 2.2-5.3-.7-7.6-2.2c-2.2-1.4-4-3.4-5.2-5.9s-1.9-5.2-1.9-8.3zm5.3 0c0 3.2.9 5.9 2.7 8s4 3.2 6.7 3.2 4.9-1.1 6.7-3.2 2.6-4.8 2.6-8c0-3.1-.9-5.6-2.6-7.7-1.8-2-4-3.1-6.7-3.1s-4.9 1-6.7 3.1-2.7 4.7-2.7 7.7z" fill="#8bc649"/><path d="m173 340.9v-18.2c0-1.2.5-1.8 1.6-1.8h1.8c1.1 0 1.7.6 1.7 1.8v18.1c0 2.1.6 3.7 1.7 4.9s2.7 1.7 4.6 1.7 3.5-.6 4.6-1.7c1.1-1.2 1.7-2.8 1.7-4.9v-18.1c0-1.2.5-1.8 1.6-1.8h1.8c1.1 0 1.6.6 1.6 1.8v18.2c0 3.5-1 6.3-3.1 8.5s-4.9 3.2-8.3 3.2-6.2-1.1-8.3-3.2c-2-2.2-3-5-3-8.5z" fill="#8bc649"/><path d="m202 350.2v-27.5c0-1.2.5-1.8 1.6-1.8h8c4.4 0 7.9 1.4 10.6 4.1s3.9 6.6 3.9 11.5-1.3 8.7-3.9 11.5-6.1 4.2-10.6 4.2h-8c-1-.1-1.6-.7-1.6-2zm5.1-3h4.3c2.9 0 5.2-.9 6.9-2.8s2.5-4.5 2.5-8c0-3.4-.8-6.1-2.5-7.9-1.7-1.9-4-2.8-6.9-2.8h-4.3z" fill="#8bc649"/><path d="m78.6 350 8.9-27.6c.3-1 .9-1.5 1.9-1.5h2.6c1 0 1.6.5 1.9 1.5l8.9 27.6c.1.3.1.5.1.8s-.1.5-.2.8c-.2.4-.7.6-1.3.6h-1.8c-1 0-1.6-.5-1.9-1.5l-2-6.5h-10l-2 6.5c-.3 1-.9 1.5-1.9 1.5h-1.8c-.6 0-1.1-.2-1.3-.6-.1-.2-.2-.5-.2-.8s0-.5.1-.8zm8.3-10.6h7.4l-2.5-8.4c-.1-.5-.3-1.2-.5-2s-.3-1.5-.5-2l-.2-.8h-.1c-.4 2-.8 3.7-1.1 4.8z" fill="#8bc649"/><path d="m105.7 350.2 2-27.6c.1-1.2.7-1.8 1.7-1.8h2.5c1 0 1.6.5 1.9 1.5l5.1 13.9c.2.5.4 1.2.6 2s.4 1.4.6 1.9l.2.7h.1c.5-1.8 1-3.3 1.4-4.6l5.1-13.9c.3-1 1-1.5 1.9-1.5h2.5c1.1 0 1.6.6 1.7 1.8l2 27.6v.2c0 .5-.1.9-.4 1.2s-.7.5-1.2.5h-1.8c-1.1 0-1.6-.6-1.7-1.8l-1.1-15.7c0-.6-.1-1.3-.1-2.1 0-.3 0-.5 0-.8 0-.5 0-.9 0-1.2v-.8h-.1c-.6 2-1.1 3.6-1.5 4.8l-4.1 10.7c-.3 1-.9 1.4-1.9 1.4h-1.7c-1 0-1.6-.5-1.9-1.4l-4.1-10.7c-.2-.5-.4-1.2-.7-2s-.5-1.5-.6-2l-.2-.8h-.1v2.1c0 1 0 1.9-.1 2.8l-1.1 15.7c-.1 1.2-.7 1.8-1.7 1.8h-1.8c-.5 0-.9-.2-1.2-.5-.2-.3-.4-.7-.4-1.2.2-.1.2-.1.2-.2z" fill="#8bc649"/><path d="m139 336.2c0-3 .6-5.6 1.9-8.1s3-4.3 5.2-5.8c2.2-1.4 4.8-2.1 7.6-2.1s5.3.7 7.6 2.1c2.2 1.4 4 3.3 5.2 5.8s1.9 5.1 1.9 8.1-.6 5.8-1.9 8.3-3 4.5-5.2 5.9-4.8 2.2-7.6 2.2-5.3-.7-7.6-2.2c-2.2-1.4-4-3.4-5.2-5.9s-1.9-5.2-1.9-8.3zm5.3 0c0 3.2.9 5.9 2.7 8s4 3.2 6.7 3.2 4.9-1.1 6.7-3.2 2.6-4.8 2.6-8c0-3.1-.9-5.6-2.6-7.7-1.8-2-4-3.1-6.7-3.1s-4.9 1-6.7 3.1-2.7 4.7-2.7 7.7z" fill="#8bc649"/><path d="m173 340.9v-18.2c0-1.2.5-1.8 1.6-1.8h1.8c1.1 0 1.7.6 1.7 1.8v18.1c0 2.1.6 3.7 1.7 4.9s2.7 1.7 4.6 1.7 3.5-.6 4.6-1.7c1.1-1.2 1.7-2.8 1.7-4.9v-18.1c0-1.2.5-1.8 1.6-1.8h1.8c1.1 0 1.6.6 1.6 1.8v18.2c0 3.5-1 6.3-3.1 8.5s-4.9 3.2-8.3 3.2-6.2-1.1-8.3-3.2c-2-2.2-3-5-3-8.5z" fill="#8bc649"/><path d="m202 350.2v-27.5c0-1.2.5-1.8 1.6-1.8h8c4.4 0 7.9 1.4 10.6 4.1s3.9 6.6 3.9 11.5-1.3 8.7-3.9 11.5-6.1 4.2-10.6 4.2h-8c-1-.1-1.6-.7-1.6-2zm5.1-3h4.3c2.9 0 5.2-.9 6.9-2.8s2.5-4.5 2.5-8c0-3.4-.8-6.1-2.5-7.9-1.7-1.9-4-2.8-6.9-2.8h-4.3z" fill="#8bc649"/><path d="m233.7 210.7c-9.7-28.3-45.6-13.9-45.6-13.9s-10.8 4.9-20.3 5.7c-20.8 1.3-34.7-10.3-36.2-11.6l-3.9 4c4 2.8 23 14.8 40.1 13.9 8.6-.6 18.3-4.4 18.3-4.4s30-17.9 40.9 7.2c9 28.6-35.5 37.5-45.8 37.6-9.9.2-37.8 0-76.4-30.8l-2.2 2.2c41.4 36.7 69.8 34.4 80.1 34.3 11.5-.1 58.6-10.4 51-44.2z" fill="#b92a8a"/><path d="m134.2 193.1c-9.6-14.8-26.8-8.3-26.8-8.3-8.3-7.5-9.5-15.3-9.7-18.4 0-.8-.6-1.5-1.5-1.7-8.6-1.9-13-1.4-15.1-.8-.9.2-1.5 1.1-1.4 2.1 2.4 16 18.5 27 18.5 27s-4 5.4-4.2 13.3c-.2 11.7 10.6 16.6 10.6 16.6 4-2.9 5.7-8.4 5.7-8.4 12.7 6.4 14.7 2.4 14.7 2.4 4.6-5.1.8-15.8.8-15.8 7.4-2 8.4-8 8.4-8zm-48.4-25.7c1.6.7 6.7.8 6.7.8 2 13.1 9.4 20.1 9.4 20.1-12.2-4-16.1-20.9-16.1-20.9zm38.1 28.7c-2.2 1-3.5.2-4.5 2-1 1.7.3 3.6 1.3 6.5s.4 7.8.4 7.8c-4.4-.5-9.2-2.7-11-5.1-3.8-3.7-6.1-.7-5.6 3.6.4 3.1-.9 4.6-.9 4.6s-5.1-6.3-3.5-13.4c1.7-7.1 6.2-12.3 14.2-13s12.8 4.8 12.8 4.8-1 1.2-3.2 2.2z" fill="#89c240"/><path d="m178.8 242.6c-16.6 0-33.2-6.1-45.9-12.3-1.2-.6-1.8-2.1-1.1-3.3.6-1.2 2.1-1.8 3.3-1.2 59.7 29.1 80.3-5.2 80.5-5.5.7-1.2 2.2-1.6 3.4-.9s1.6 2.2.9 3.4c-.2.4-5.9 10.1-19.7 15.8-6.9 2.8-14.1 4-21.4 4z" fill="#c53092"/><path d="m82.7 92.5c-8.1.2-19.1 7.6-19.1 7.6 17.1-31.4 7.9-50.1 7.9-50.1-44.8 8.9-38.2 62.3-38.2 62.3-4-5.3-11.7-9-11.7-9-5.2-.7-3.5 4.2-3.5 4.2 16 8.7 15.7 18.1 15.7 18.1l12.9 2.9c7.4-23.1 36.3-30.9 36.3-30.9 3-3.1-.3-5.1-.3-5.1zm-38.7 24.2 10.1-31.2s-.5-6.1-5.5-1.9l-9.4 30.4s-9.2-45.2 29.3-57.7c0 0 3.1 33.9-24.5 60.4z" fill="#91c63e"/><path d="m58.7 130.1s-7.3-5.3-19.1-5.3-19.1 5.3-19.1 5.3-8.4 4.8-8.4 17.1c0 1.6.1 3 .4 4.4 1.1 6.3 5.3 11.6 11.1 14.3 4.4 2.1 12.1 6.3 12.5 11.4.8 6.7 3.4 5.7 3.4 5.7s2.6 1 3.4-5.7c.5-5 8.1-9.3 12.5-11.4 5.8-2.7 10-8 11.1-14.3.2-1.3.4-2.8.4-4.4.1-12.4-8.2-17.1-8.2-17.1zm-1.9 27.8c-1.2 1.3-2.7 2.3-4.3 3-7 3.2-13 9.6-13 9.6s-6-6.4-13-9.6c-1.6-.7-3.1-1.8-4.3-3-5.2-5.3-4.5-10.9-4.5-10.9s-1.7-16.1 21.8-16.5c23.5.4 21.8 16.5 21.8 16.5s.7 5.6-4.5 10.9z" fill="#d23694"/><path d="m25.3 154.9h-.1c-1.4-.1-2.4-1.2-2.4-2.6.3-5.5 2.1-9.7 5.4-12.3 5.1-4.1 11.6-3 11.9-3 1.4.2 2.3 1.5 2.1 2.9s-1.5 2.3-2.9 2.1c-.1 0-4.7-.7-8 2-2.1 1.8-3.3 4.7-3.5 8.7-.1 1.2-1.2 2.2-2.5 2.2z" fill="#d23694"/><path d="m191.6 22.1c-.5-.8-1.4-1.4-2.4-1.3-25.6.7-31.9 21.2-31.9 21.2-9.1-15.2-25.5-27.5-35.5-27.7s-6.9 4.5-6.9 4.5c31.6 31.8 32.7 67.1 32.7 67.1l5.9-.7h-.2s-3.4-36.7-29.5-64.6c0 0 37.5 6.8 34.5 64l4.9-.6c2.8-27.2 19.6-53.6 25.7-56.6 3.9-1.7 3.5-3.9 2.7-5.3zm-28.2 39.2-3.2-12.4c4.6-19.3 21.1-21 21.1-21-11 12.3-17.9 33.4-17.9 33.4z" fill="#8fc449"/><path d="m186.9 91.4c-1.6-6.8-7.4-10.2-15.2-9.1l-14.3 1.9-14.3 1.9c-7.7 1.1-12.4 5.9-12.1 12.9-.3 7 34.4 92 34.4 92s2.3 4.2 7.1 3.5c4.8-.6 5.9-5.3 5.9-5.3s10.7-91.2 8.5-97.8zm-13.1 97.1c-.1 1-.9 1.8-1.9 1.9-1 .2-2-.3-2.4-1.3-4.8-11.7-31.2-81-31.1-87.1-.3-6.6 1-10.6 7.4-11.5l12-1.6 12-1.6c6.5-.9 8.4 1.4 9.9 7.8 1.7 5.8-4.5 81.2-5.9 93.4z" fill="#f08521"/><path d="m180.5 101-20.6 3s-3.7 3.2.6 5.3l20-2.6z" fill="#f08521"/><path d="m146.3 134.5 20.6-3s3.7-3.2-.6-5.3l-20 2.6z" fill="#f08521"/><path d="m177.8 151.9-9 1.3s-3.7 3.2.6 5.3l8.3-.9v-5.7z" fill="#f08521"/><path d="m250.3 100.4c-8.1 1.7-15.4 5.1-15.4 5.1s-39.2-5.4-41.1 32.9c-1.9 38.2 44.8 43.5 44.8 43.5s46.7 3.2 54.1-38.3c7.5-41.5-34.3-44.9-42.4-43.2zm38 42.3c-6 36.2-47.5 34.1-47.5 34.1s-41.5-3.9-40.3-37.2 36-29.2 36-29.2 6.4-3.1 13.6-4.7c7.1-1.5 44.2.9 38.2 37z" fill="#ef3c24" mask="url(#b)"/><path d="m239.6 172.3h-.1c-12.2-.6-21.5-4.5-27.5-11.7-9-10.6-7.4-24.4-7.3-25 .2-1.4 1.4-2.3 2.8-2.2 1.4.2 2.3 1.4 2.2 2.8 0 .2-1.3 12.3 6.2 21.2 5.1 6 13.2 9.4 23.9 9.9 1.4.1 2.4 1.2 2.4 2.6-.1 1.3-1.2 2.4-2.6 2.4z" fill="#ef3c24"/><path d="m274.4 159.9c-.8 0-1.6-.4-2.1-1.2-.7-1.2-.4-2.7.8-3.4.6-.4 14.2-9.5 4-29.6-.6-1.2-.1-2.7 1.1-3.4 1.2-.6 2.7-.1 3.4 1.1 12.3 24.3-5.6 36-5.8 36.1-.5.2-1 .4-1.4.4z" fill="#f57f20"/><path d="m212.6 86.2s14.5 2.6 17.4 14.8l.2.2c.5.5 1.2 0 1.1-.6-2.4-11.3-10.6-15.3-13.7-16.5-.5-.2-.6-.8-.2-1.1 3.4-3.6.9-1.5 0-.8-.2.2-.5.3-.8.3-.5 0-1.3 0-2.6-.2-7.5-1.7 1.6-4.9 3.1-5.5h.4c14.8 5.7 18 24.8 18 24.8l.7-.4s.4-.2 1-.4c-.4-.1-.9-.5-1-1.5 0 0-4-27.4-19-27.1-6.5 0-14.4 11.6-8.7 13.9 2 .7 4.1.1 4.1.1z" fill="#89c240"/><path d="m269.2 98s-17.7-10.9-29.7 1.9c4.1-1.6 11.4-3.9 15.8-2.4 0 0-7.1 3-8 5.8 0 0 7.8 2.7 9.8 6.8 0 0-11.3-3.9-17.2 2.2-1.7 2-3.5 9-12 16.3 0 0 6.6-16.3 3.9-21 0 0-10 .5-16.7 6.1 0 0 1.6-5.8 9.8-11.6-5.3 1.6-13 5.6-15.7 15.5 0 0 11.6 1.8 18.4-3.8 0 0-5.6 8.9-1.6 21.4 0 0 13.3-6.7 17-19.6 0 0 10.7-4.1 22.5 2.7 0 0-.5-10.7-10.4-14.4 0 .1 5.5-7.1 14.1-5.9z" fill="#89c240"/><path d="m268.8 195.9c-3.3-3.3-9.8 4.7-9.8 4.7s-10.2-16.5-23.3-12.8c-1 12.5 15.3 19 15.3 19l11.8-2.4c-.1 0 9.4-5.2 6-8.5zm-25.6-2.1c5.7.5 9.4 7.6 9.4 7.6s-9.4-2.5-9.4-7.6z" fill="#89c240"/><path d="m263 204.4h-10.8c-8.8 0-14.3 9.5-9.9 17.1l5.4 9.3c4.4 7.6 15.4 7.6 19.7 0l5.4-9.3c4.5-7.6-1-17.1-9.8-17.1zm5.4 16.8-3.7 6.4c-3 5.2-10.5 5.2-13.5 0l-3.7-6.4c-3-5.2.8-11.7 6.8-11.7h7.4c6 0 9.7 6.5 6.7 11.7z" fill="#e05fa3"/><circle cx="250.6" cy="214.4" fill="#e05fa3" r="2.8"/><circle cx="258" cy="214.4" fill="#e05fa3" r="2.8"/><circle cx="265.2" cy="214.4" fill="#e05fa3" r="2.8"/><circle cx="261.6" cy="221.2" fill="#e05fa3" r="2.8"/><circle cx="254.2" cy="221.2" fill="#e05fa3" r="2.8"/><circle cx="258" cy="227.9" fill="#e05fa3" r="2.8"/><path d="m49.8 202s1.1-1.2-3.2-4.8c-.9-1.1-1-3.4-1-3.4l-7.7 1.8s1.3 2.6.8 4.1c-2 5.2-.2 6.8-.2 6.8s6.9.2 11.3-4.5z" fill="#7fa33e"/><path d="m89.7 237.5c-15.3-8.5-25.3-23.6-25.3-23.6s-14.5-23.2-27.2-6c-7.2 10.4 14.1 39.6 14.1 39.6s32.7 43.1 55.4 25.5c0 0 19.2-14.7-17-35.5zm11.4 29.7c-17.8 13.7-43.9-21.5-43.9-21.5s-15.1-19.1-15-29.3c0-1.9.9-3.8 2.4-5 11.3-9.4 20.2 9.2 20.2 9.2s8.5 12.4 20.4 19.1c28.3 16 15.9 27.5 15.9 27.5z" fill="#7fa33e"/><path d="m110.6 269.2s.6-1.9-1.2-2.7c-2.4-1.1-3.8 1-3.8 1s-2.1-1-3.6.5-.4 3.6-.4 3.6-1.9 1.8-1.2 3.4c1.1 2.3 3.4 1.2 3.4 1.2s1.8 2 3.5 1c1.8-1 1.2-3.1 1.2-3.1s1.9.5 3.2-1.2c1.1-1.4-1.1-3.7-1.1-3.7zm-.8 3.3c-.6 1.5-2.4.9-2.4.9s.6 1.2-.5 1.9-2.1-.8-2.1-.8-1.7.8-2.3-.6c-.5-1 1.1-2 1.1-2s-1-1.6 0-2.5 2.3-.1 2.3-.1.9-1.6 2.5-.9c1.1.5.4 2.3.4 2.3s1.4.8 1 1.8z" fill="#7fa33e"/><ellipse cx="106.3" cy="272" fill="#7fa33e" rx="1.7" ry="1.2" transform="matrix(-.6316 .7753 -.7753 -.6316 384.3478 361.3416)"/><path d="m92.1 264.6c-8.5 0-17.3-4.5-25.4-12.9-6.2-6.4-9.8-12.8-9.9-13.1-.5-1-.2-2.2.8-2.7s2.2-.2 2.7.8c.1.2 13.7 24 31.9 24h.6c1.1 0 2 .8 2.1 1.9 0 1.1-.8 2-1.9 2.1-.4-.1-.6-.1-.9-.1z" fill="#7fa33e"/><path d="m49.8 202s1.1-1.2-3.2-4.8c-.9-1.1-1-3.4-1-3.4l-7.7 1.8s1.3 2.6.8 4.1c-2 5.2-.2 6.8-.2 6.8s6.9.2 11.3-4.5z" fill="#7ea33f"/><path d="m89.7 237.5c-15.3-8.5-25.3-23.6-25.3-23.6s-14.5-23.2-27.2-6c-7.2 10.4 14.1 39.6 14.1 39.6s32.7 43.1 55.4 25.5c0 0 19.2-14.7-17-35.5zm11.4 29.7c-17.8 13.7-43.9-21.5-43.9-21.5s-15.1-19.1-15-29.3c0-1.9.9-3.8 2.4-5 11.3-9.4 20.2 9.2 20.2 9.2s8.5 12.4 20.4 19.1c28.3 16 15.9 27.5 15.9 27.5z" fill="#bad75e"/><path d="m110.6 269.2s.6-1.9-1.2-2.7c-2.4-1.1-3.8 1-3.8 1s-2.1-1-3.6.5-.4 3.6-.4 3.6-1.9 1.8-1.2 3.4c1.1 2.3 3.4 1.2 3.4 1.2s1.8 2 3.5 1c1.8-1 1.2-3.1 1.2-3.1s1.9.5 3.2-1.2c1.1-1.4-1.1-3.7-1.1-3.7zm-.8 3.3c-.6 1.5-2.4.9-2.4.9s.6 1.2-.5 1.9-2.1-.8-2.1-.8-1.7.8-2.3-.6c-.5-1 1.1-2 1.1-2s-1-1.6 0-2.5 2.3-.1 2.3-.1.9-1.6 2.5-.9c1.1.5.4 2.3.4 2.3s1.4.8 1 1.8z" fill="#ad9152"/><ellipse cx="106.3" cy="272" fill="#896f31" rx="1.7" ry="1.2" transform="matrix(-.6316 .7753 -.7753 -.6316 384.3478 361.3416)"/><path d="m92.1 264.6c-8.5 0-17.3-4.5-25.4-12.9-6.2-6.4-9.8-12.8-9.9-13.1-.5-1-.2-2.2.8-2.7s2.2-.2 2.7.8c.1.2 13.7 24 31.9 24h.6c1.1 0 2 .8 2.1 1.9 0 1.1-.8 2-1.9 2.1-.4-.1-.6-.1-.9-.1z" fill="#7fa33e"/><path d="m139 153.7s-1.6.4 3 2c-.5 4-11.3.7-17.6-2.9-7.6-6.8-19.1-16.5-16.3-46.2.2-1.6 1.1-5.6 1.8-8.5.4-1.7 1-3.3 1.8-4.8 1.5-2.8 3.3-8.6-4.8-11.3-8.6-2.8-12 4.7-12 4.7s-2.7 1.5-5.1 12.2-2.2 14.1-2.2 14.1-2.1 14 8.5 31.4c8 12.4 21.9 16.7 21.9 16.7s21.1 3.8 26-3.7c.9-7-5-3.7-5-3.7zm-6.7 6.6c-3 .2-6-.1-8.9-1.1-15.7-5-25.9-13.3-30-31.8-4.3-19.5 0-31.7 3.6-38 2.7-4.8 7.9-2.4 7.9-2.4 6 2.7 1.6 9.4 1.6 9.4s-5.2 6.9-.9 34.7c4 26.1 31.7 28.4 31.7 28.4s-2.1.6-5 .8z" fill="#e41e26"/><path d="m98.6 80.1s8.5 4.5 9.9-10.1c1-5 4.1-10.2 5.5-12.4s3.8-8.3 8.9-7.6c1.4.7 1.9 4.5-.4 3.9-2.2-.7-3.9-1.8-6.9 5.2-1 2.6-3 5.6-3 5.6s-3.2 13.6-2.9 16.5c.3 1.4 3.3 2.5 3.3 2.5s2 .1 2.8.1c0 0-1.1 1.7-3.3.9 0 0-2 .1-2.1 1.5 0 0-1-3.9-6.9-.5 0 0 .5-2.9-3-2.6-1.1-.1-1.9-3-1.9-3z" fill="#38481f"/><path d="m101.7 140.7c-.5 0-.9-.2-1.2-.6-7.5-9.8-5.9-18.2-5.8-18.5.2-.8 1-1.3 1.8-1.2.8.2 1.3 1 1.2 1.8-.1.3-1.3 7.5 5.3 16.1.5.7.4 1.6-.3 2.1-.4.2-.7.3-1 .3z" fill="#e41e26"/><path d="m133.5 256.6c-9.5 0-17.2 7.7-17.2 17.2s7.7 17.2 17.2 17.2 17.2-7.7 17.2-17.2-7.7-17.2-17.2-17.2zm0 30.2c-7.2 0-13-5.8-13-13s5.8-13 13-13 13 5.8 13 13c0 7.1-5.8 13-13 13z" fill="#eb7f24"/><path d="m144.6 273.1c-.4-3.7-1.8-6.4-4.1-8-3-2-6.2-1.3-6.6-1.2-1.3.3-2.1 1.7-1.8 3s1.7 2.1 3 1.8c0 0 1.4-.3 2.5.5 1.3.9 1.7 2.9 1.9 4.4.1 1.3 1.2 2.2 2.5 2.2h.3c1.4-.1 2.4-1.3 2.3-2.7z" fill="#eb7f24"/><path d="m62.3 123.6c20.1 9.8 21.4-15.3 21.4-15.3-22.9-4.6-21.4 15.3-21.4 15.3zm6.2-3.9s-.7-8.4 9-6.5c0 0-.5 10.6-9 6.5z" fill="#91c540"/><path d="m212.3 26.9s-34.1 7.8-21.5 32.7c0 0-10.7 9-16.5 10.7 0 0-1.5 3.9 2.7 4.1s14.4-7.1 17.2-10.3c0 .1 32.1 2.8 18.1-37.2zm-11.2 30.6s10.1-11.7 4.7-13.7c-3.7-1.2-4.6 5.3-10.9 11.4 0 0-7.7-12 13.8-21.6 0 0 6.1 21.2-7.6 23.9z" fill="#4dbc87"/><path d="m106.8 237.7s1.2 25.1 21.4 15.3c0 0 1.5-20-21.4-15.3zm6.2 4.9c9.7-2 9 6.5 9 6.5-8.5 4-9-6.5-9-6.5z" fill="#91c540"/><path d="m166.1 265.7c-7.5 0-13.6 6.1-13.6 13.6s6.1 13.6 13.6 13.6 13.6-6.1 13.6-13.6-6.1-13.6-13.6-13.6zm0 23c-5.2 0-9.5-4.2-9.5-9.5 0-5.2 4.2-9.5 9.5-9.5 5.2 0 9.5 4.2 9.5 9.5s-4.3 9.5-9.5 9.5z" fill="#ef4223"/><path d="m174.2 279.2c-.3-3.1-1.5-5.3-3.4-6.6-2.4-1.7-5.1-1.1-5.4-1-1.1.3-1.7 1.4-1.5 2.5.3 1.1 1.4 1.8 2.5 1.5 0 0 1.2-.3 2.1.4 1 .7 1.4 2.4 1.6 3.6.1 1.1 1 1.8 2 1.8h.2c1.2-.1 2-1.1 1.9-2.2z" fill="#ef4223"/><path d="m187.3 284.9s14.8-5 20.7-8.3c0 0 40.9.9 43.3-35.8 0 0-33.8-5.3-47 30.2 0 0-14.3 8.9-18.5 8.9 0 0-4.4 3.5 1.5 5zm42.7-27.3c-2.6-2.5-17.6 8.8-17.6 8.8s4.7-18.8 32.7-20.1c0 0-10.4 27.6-27.4 23.3.1 0 15.9-8.6 12.3-12z" fill="#49bb88"/><path d="m190.2 172.4s1.2 25.1 21.4 15.3c0 0 1.6-20-21.4-15.3zm6.2 4.9c9.7-2 9 6.5 9 6.5-8.4 4-9-6.5-9-6.5z" fill="#ffc620"/><path d="m189.2 271.3c-3.8 0-6.9-3.1-6.9-6.9s3.1-6.9 6.9-6.9 6.9 3.1 6.9 6.9-3 6.9-6.9 6.9zm0-10.3c-1.8 0-3.3 1.5-3.3 3.3s1.5 3.3 3.3 3.3 3.3-1.5 3.3-3.3-1.4-3.3-3.3-3.3z" fill="#ffc620"/><path d="m68.5 138.2s3.1 24.9 22.5 13.7c0-.1 0-20.1-22.5-13.7zm6.6 4.4c9.5-2.7 9.5 5.8 9.5 5.8-8.2 4.7-9.5-5.8-9.5-5.8z" fill="#49bb88"/><path d="m93.6 57.4c-7.1-3-11.8.3-11.8.3-2.9 2.5-2.2 7.3-2 10.2s5.8 16.8 16.9 6c11.2-10.8-.4-15.9-3.1-16.5zm-5 14.8c-3.5.9-3.5-9.9-3.5-9.9 2.7-1.2 9.4.5 10.4 2.3 1.2 1.8-3.3 6.7-6.9 7.6z" fill="#e05fa3"/><path d="m79.8 193.9c-.6-1.2-4-3.5-4.7-7.5-.6-5.8-5-9.5-10.3-7.8s-8.5 7.7-3.9 17.4 12.4 11.9 12.4 11.9 3.3.8 6.7-1.5c7.4-5.3.4-11.3-.2-12.5zm-1.8.1s-2.4-.6-3.5-2.9-.3-3.9-.3-3.9.6-.6.7 1.3c.2 1.9 1.9 3.6 1.9 3.6s2.4 1.7 1.2 1.9z" fill="#db7527"/><path d="m247.9 50.3c-6.4-8.6-14.6-9.1-14.6-9.1s-3.4-.1-6.3 2.8c-6.1 6.7 2 11.1 2.8 12.2s4.6 2.7 6.1 6.4c1.8 5.6 6.8 8.3 11.6 5.6 4.9-2.8 6.8-9.3.4-17.9zm-11.2 11.3s-.4.7-1-1.1c-.5-1.8-2.6-3.2-2.6-3.2s-2.6-1.2-1.5-1.6c0 0 2.5.1 4 2.1s1.1 3.8 1.1 3.8z" fill="#58585a"/><path d="m131 126.4c-.1-1.2-2.4-4.1-1.9-7.6 1-5.1-1.6-9.4-6.6-9.4s-9.3 4.2-8 13.6c1.2 9.4 7.3 13.4 7.3 13.4s2.6 1.6 6.1.6c7.6-2.5 3.2-9.4 3.1-10.6zm-1.5-.4s-1.9-1.2-2.2-3.4.8-3.4.8-3.4.7-.4.3 1.3.6 3.6.6 3.6 1.5 2.1.5 1.9z" fill="#a9d051"/><path d="m90 219.2c-3.2 0-5.7 2.6-5.7 5.7s2.6 5.7 5.7 5.7c3.2 0 5.7-2.6 5.7-5.7s-2.6-5.7-5.7-5.7zm0 8.2c-1.3 0-2.4-1.1-2.4-2.4s1.1-2.4 2.4-2.4 2.4 1.1 2.4 2.4-1.1 2.4-2.4 2.4z" fill="#e05fa3"/><path d="m139.8 168.2c-7.6 1.4-9.7 6.7-9.7 6.7-1.1 3.7 2.1 7.4 4 9.6 1.8 2.3 14.1 10.9 17.4-4.2 3.4-15.1-9.1-13-11.7-12.1zm4 15.1c-2.5 2.7-8.3-6.4-8.3-6.4 1.6-2.5 8.2-4.7 10-3.8 1.8 1 .7 7.6-1.7 10.2z" fill="#49bb88"/><path d="m82.7 39.8s25.2 23.1 40.8-.2c0 0-12.8-31.6-40.8.2zm32.1-5.2s-15.2-3.1-14.3 2.6c.7 3.8 6.8 1.4 15.3 3.9 0 0-6.7 12.6-25.5-1.5 0 0 15.5-15.6 24.5-5z" fill="#fdc20f"/><path d="m280.3 173s-19.3 7.7-6.3 20.8c.1 0 16.1-4.1 6.3-20.8zm-2.2 6.2c4.1 7-2.6 8.8-2.6 8.8-5.5-5.6 2.6-8.8 2.6-8.8z" fill="#49bb88"/><path d="m201.4 107.6c-5.1 0-9.2-4.1-9.2-9.2s4.1-9.2 9.2-9.2 9.2 4.1 9.2 9.2-4.1 9.2-9.2 9.2zm0-13.5c-2.4 0-4.3 2-4.3 4.3s2 4.3 4.3 4.3 4.3-2 4.3-4.3-1.9-4.3-4.3-4.3z" fill="#ffc620"/><path d="m254.3 69.4s-6.2 24.3 15.9 21c-.1 0 7.3-18.6-15.9-21zm4.4 6.5c9.8 1 6.7 8.8 6.7 8.8-9.3 1.5-6.7-8.8-6.7-8.8z" fill="#f08521"/><path d="m128.5 83.2c-5.1 0-9.2-4.1-9.2-9.2s4.1-9.2 9.2-9.2 9.2 4.1 9.2 9.2-4.1 9.2-9.2 9.2zm0-13.5c-2.4 0-4.3 2-4.3 4.3s2 4.3 4.3 4.3c2.4 0 4.3-2 4.3-4.3s-1.9-4.3-4.3-4.3z" fill="#eb7f24"/></svg>